<svg width="378" height="295" viewBox="0 0 378 295" fill="none" xmlns="http://www.w3.org/2000/svg">
<g id="Group 1">
<g id="React">
<path id="Vector" d="M199.23 145.48C239.403 145.48 271.97 112.913 271.97 72.74C271.97 32.5668 239.403 0 199.23 0C159.057 0 126.49 32.5668 126.49 72.74C126.49 112.913 159.057 145.48 199.23 145.48Z" fill="#CCFEFF"/>
<path id="Vector_2" d="M199.23 97.63C168.6 97.63 145.63 86.91 145.63 72.74C145.63 58.57 168.63 47.86 199.23 47.86C229.83 47.86 252.83 58.58 252.83 72.74C252.83 86.9 229.86 97.63 199.23 97.63ZM199.23 55.32C171.85 55.32 152.71 64.51 152.71 72.74C152.71 80.97 171.85 90.16 199.23 90.16C226.61 90.16 245.75 81 245.75 72.74C245.75 64.48 226.6 55.32 199.23 55.32V55.32Z" fill="#77CBD2"/>
<path id="Vector_3" d="M199.23 99C167.83 99 144.29 87.71 144.29 72.77C144.29 57.83 167.83 46.55 199.23 46.55C230.63 46.55 254.17 57.84 254.17 72.77C254.17 87.7 230.62 99 199.23 99ZM199.23 49.23C169.37 49.2 147 59.34 147 72.74C147 86.14 169.4 96.29 199.26 96.29C229.12 96.29 251.52 86.14 251.52 72.74C251.52 59.34 229.09 49.2 199.23 49.2V49.23ZM199.23 91.53C170.71 91.53 151.37 81.77 151.37 72.77C151.37 63.77 170.51 54 199.23 54C227.95 54 247.09 63.77 247.09 72.76C247.09 81.75 227.75 91.5 199.23 91.5V91.53ZM199.23 56.69C171.28 56.69 154.05 66.07 154.05 72.77C154.05 79.47 171.28 88.85 199.23 88.85C227.18 88.85 244.41 79.47 244.41 72.77C244.41 66.07 227.18 56.66 199.23 56.66V56.69Z" fill="#472B29"/>
<path id="Vector_4" d="M179.13 121C176.842 121.048 174.586 120.452 172.62 119.28C160.94 112.39 163.43 87.28 178.55 60.7C189.08 42.13 203.25 28.16 214.73 25.1C216.556 24.526 218.478 24.3189 220.385 24.4905C222.292 24.6622 224.145 25.2091 225.84 26.1C237.51 33 235.03 58.1 219.9 84.68C209.37 103.25 195.21 117.23 183.72 120.29C182.245 120.802 180.69 121.042 179.13 121V121ZM219.33 31.61C218.365 31.6672 217.406 31.7942 216.46 31.99C207.08 34.48 194.25 47.49 184.68 64.15C171.47 87.31 169.37 108.94 176.07 112.96C177.41 113.73 179.32 113.96 181.81 113.35C191.19 110.86 204.01 97.84 213.59 81.19C226.79 58.02 228.9 36.39 222.2 32.37C221.318 31.8875 220.335 31.6203 219.33 31.59V31.61Z" fill="#77CBD2"/>
<path id="Vector_5" d="M179.13 122.32C176.571 122.394 174.044 121.731 171.85 120.41C159.41 113.14 161.71 87.1 177.21 59.92C187.93 40.92 202.48 26.8 214.16 23.74C218.75 22.59 222.97 22.97 226.41 24.89C238.85 32.16 236.56 58.19 221.05 85.38C210.33 104.38 195.78 118.5 184.11 121.56C182.504 122.089 180.821 122.346 179.13 122.32V122.32ZM219.33 25.84C217.907 25.841 216.49 26.0362 215.12 26.42C204 29.29 190.23 43.07 179.89 61.26C165.35 86.72 162.67 111.6 173.58 118.11C176.708 119.726 180.336 120.083 183.72 119.11C194.83 116.24 208.61 102.46 218.95 84.27C233.49 58.81 236.37 33.92 225.26 27.61C223.489 26.4753 221.434 25.8619 219.33 25.84V25.84ZM179.13 115.24C177.854 115.207 176.604 114.864 175.49 114.24C167.07 109.46 170.9 85.72 183.49 63.51C193.25 46.51 206.27 33.27 216.03 30.78C217.117 30.3983 218.268 30.2353 219.418 30.3005C220.568 30.3657 221.694 30.6578 222.73 31.16C231.16 35.95 227.33 59.69 214.73 81.89C205 99 192 112.18 182.19 114.67C181.213 115.042 180.176 115.235 179.13 115.24V115.24ZM219.33 32.93C218.49 32.9774 217.656 33.1046 216.84 33.31C207.65 35.8 195.21 48.43 185.84 64.89C172.25 88.82 171.29 108.73 176.84 111.99C178.292 112.643 179.939 112.712 181.44 112.18C190.62 109.69 203.07 97.06 212.44 80.59C226 56.66 227 36.75 221.43 33.5C220.799 33.1126 220.07 32.9147 219.33 32.93V32.93Z" fill="#472B29"/>
<path id="Vector_6" d="M219.33 121C217.779 120.997 216.235 120.806 214.73 120.43C203.44 117.37 189.27 103.43 178.55 84.82C163.43 58.21 160.94 33.14 172.62 26.25C174.312 25.3568 176.164 24.8085 178.07 24.6368C179.975 24.4651 181.896 24.6736 183.72 25.25C195.02 28.31 209.18 42.25 219.9 60.85C235.03 87.46 237.51 112.54 225.84 119.43C223.819 120.445 221.592 120.982 219.33 121ZM179.13 31.61C178.116 31.5407 177.107 31.8078 176.26 32.37C169.37 36.37 171.66 58.21 184.87 81.19C194.44 97.84 207.08 110.86 216.65 113.35C218.95 113.92 220.86 113.92 222.39 112.96C229.28 108.96 226.99 87.12 213.78 64.15C204.21 47.47 191.57 34.46 182 32C181.057 31.7822 180.097 31.645 179.13 31.59V31.61Z" fill="#77CBD2"/>
<path id="Vector_7" d="M219.33 122.32C217.633 122.335 215.945 122.079 214.33 121.56C202.65 118.5 188.11 104.14 177.39 85.38C161.88 58.19 159.58 32.16 172.03 24.89C173.888 23.8801 175.932 23.2575 178.037 23.0598C180.143 22.8621 182.266 23.0935 184.28 23.74C196 26.8 210.52 41.16 221.24 59.92C236.75 87.1 239.05 113.14 226.6 120.41C224.401 121.709 221.884 122.37 219.33 122.32V122.32ZM179.13 25.84C177.054 25.8508 175.013 26.3765 173.19 27.37C162.28 33.69 165.19 58.77 179.51 84.04C189.85 102.22 203.82 116.04 214.73 118.88C218.56 119.88 222.01 119.64 224.88 117.88C235.79 111.56 232.88 86.49 218.56 61.03C208.23 42.84 194.25 29.03 183.34 26.19C181.947 25.9746 180.54 25.8576 179.13 25.84V25.84ZM219.33 115.24C218.301 115.196 217.278 115.069 216.27 114.86C206.5 112.18 193.49 98.97 183.72 82.12C171.09 59.92 167.26 36.37 175.72 31.39C177.815 30.3812 180.224 30.2445 182.42 31.01C192.19 33.69 205.2 46.9 214.97 63.75C227.6 85.95 231.43 109.5 222.97 114.48C221.807 114.933 220.577 115.19 219.33 115.24V115.24ZM179.13 32.93C178.324 32.8907 177.524 33.0889 176.83 33.5C171.47 36.75 172.24 56.66 185.83 80.59C195.21 97.06 207.65 109.69 216.83 112.18C218.326 112.72 219.974 112.652 221.42 111.99C226.78 108.73 226.02 88.82 212.42 64.89C203.04 48.43 190.79 35.8 181.6 33.31C180.79 33.1066 179.963 32.9793 179.13 32.93V32.93Z" fill="#472B29"/>
<path id="Vector_8" d="M199.23 83.27C205.046 83.27 209.76 78.5555 209.76 72.74C209.76 66.9244 205.046 62.21 199.23 62.21C193.414 62.21 188.7 66.9244 188.7 72.74C188.7 78.5555 193.414 83.27 199.23 83.27Z" fill="#77CBD2"/>
<path id="Vector_9" d="M199.23 84.23C196.957 84.232 194.735 83.5598 192.844 82.2984C190.953 81.0371 189.479 79.2433 188.607 77.144C187.736 75.0446 187.507 72.734 187.95 70.5045C188.392 68.275 189.485 66.2268 191.092 64.6189C192.698 63.011 194.746 61.9157 196.975 61.4715C199.204 61.0274 201.515 61.2543 203.615 62.1237C205.715 62.993 207.51 64.4657 208.773 66.3555C210.036 68.2452 210.71 70.4671 210.71 72.74C210.702 75.7832 209.49 78.6996 207.339 80.8524C205.189 83.0052 202.273 84.2194 199.23 84.23V84.23ZM199.23 63.17C197.337 63.17 195.487 63.7313 193.913 64.7828C192.339 65.8344 191.113 67.329 190.388 69.0777C189.664 70.8264 189.475 72.7506 189.844 74.607C190.213 76.4634 191.125 78.1686 192.463 79.507C193.801 80.8454 195.507 81.7569 197.363 82.1261C199.219 82.4954 201.144 82.3059 202.892 81.5815C204.641 80.8572 206.136 79.6306 207.187 78.0568C208.239 76.483 208.8 74.6328 208.8 72.74C208.812 71.4799 208.573 70.2301 208.096 69.0635C207.619 67.897 206.915 66.8373 206.024 65.9462C205.133 65.0551 204.073 64.3507 202.906 63.874C201.74 63.3973 200.49 63.158 199.23 63.17V63.17Z" fill="#472B29"/>
<path id="Vector_10" d="M199.23 80C199.079 79.9906 198.937 79.9264 198.83 79.8196C198.724 79.7128 198.659 79.5707 198.65 79.42C198.64 79.3419 198.648 79.2625 198.674 79.188C198.699 79.1135 198.742 79.046 198.798 78.9908C198.854 78.9356 198.923 78.8942 198.998 78.8697C199.072 78.8453 199.152 78.8385 199.23 78.85C199.944 78.8159 200.65 78.6882 201.33 78.47C202.222 78.0943 203.06 77.5998 203.82 77C203.922 76.8979 204.061 76.8405 204.205 76.8405C204.349 76.8405 204.488 76.8979 204.59 77C204.692 77.1021 204.749 77.2406 204.749 77.385C204.749 77.5294 204.692 77.6679 204.59 77.77C203.795 78.6209 202.812 79.2748 201.72 79.68C200.905 79.8827 200.07 79.9901 199.23 80V80Z" fill="#472B29"/>
<path id="Vector_11" d="M205.16 76.19H205C204.81 76 204.62 75.81 204.81 75.61C205.2 74.7711 205.395 73.8549 205.38 72.93C205.404 71.7715 205.092 70.6309 204.481 69.6461C203.871 68.6612 202.988 67.8741 201.94 67.38C201.75 67.19 201.56 67 201.75 66.81C201.94 66.62 202.13 66.43 202.32 66.62C203.546 67.2009 204.576 68.1254 205.287 69.2811C205.997 70.4368 206.356 71.774 206.32 73.13C206.34 74.2595 206.079 75.3763 205.56 76.38C205.55 76 205.35 76.19 205.16 76.19Z" fill="#472B29"/>
<path id="Vector_12" d="M205.93 47.47C205.74 47.47 205.74 47.47 205.55 47.28C198.46 38.48 191.76 32.73 185.64 30.28C185.45 30.08 185.25 29.89 185.45 29.7C185.65 29.51 185.83 29.32 186.02 29.51C192.34 32.19 199.02 38.12 206.31 46.93C206.402 47.0371 206.453 47.1737 206.453 47.315C206.453 47.4563 206.402 47.5929 206.31 47.7C206.12 47.28 206.12 47.47 205.93 47.47Z" fill="#472B29"/>
<path id="Vector_13" d="M173.39 30.25C173.19 30.25 173.19 30.25 173 30.05C172.909 29.9445 172.858 29.8096 172.858 29.67C172.858 29.5304 172.909 29.3955 173 29.29C173.58 28.91 176.64 26.8 182.19 27.95C182.38 27.95 182.57 28.33 182.57 28.52C182.57 28.71 182.19 28.91 182 28.91C176.83 27.76 174.15 29.67 173.77 30.05C173.58 30.05 173.58 30.25 173.39 30.25Z" fill="#472B29"/>
<path id="Vector_14" d="M235.6 87.87C235.5 87.8628 235.406 87.8191 235.336 87.7472C235.266 87.6753 235.225 87.5802 235.22 87.48C235.22 87.29 235.22 86.91 235.6 86.91C237.525 86.1805 239.382 85.2837 241.15 84.23C241.198 84.1935 241.254 84.1691 241.313 84.1591C241.372 84.149 241.433 84.1535 241.49 84.1722C241.547 84.1909 241.599 84.2233 241.641 84.2664C241.682 84.3096 241.713 84.3623 241.73 84.42C241.767 84.4675 241.791 84.5234 241.801 84.5827C241.81 84.642 241.805 84.7027 241.785 84.7593C241.765 84.816 241.731 84.8668 241.687 84.907C241.642 84.9473 241.588 84.9758 241.53 84.99C239.634 86.1073 237.651 87.0704 235.6 87.87V87.87Z" fill="#472B29"/>
<path id="Vector_15" d="M178.36 117.92C173.19 117.73 169.94 113.92 168.79 107.01C168.79 106.82 168.98 106.44 169.17 106.44C169.36 106.44 169.75 106.63 169.75 106.82C170.9 113.33 173.75 116.82 178.36 116.96C178.55 116.96 178.75 117.16 178.75 117.54C178.94 117.73 178.75 117.92 178.36 117.92Z" fill="#472B29"/>
<path id="Vector_16" d="M168.79 102.8C168.6 102.8 168.41 102.61 168.22 102.42C168.06 99.4711 168.251 96.5137 168.79 93.61C168.79 93.42 169.17 93.23 169.37 93.23C169.57 93.23 169.75 93.61 169.75 93.8C169.28 96.5807 169.086 99.4011 169.17 102.22C169.37 102.61 169.17 102.8 168.79 102.8Z" fill="#472B29"/>
</g>
<g id="Unity">
<path id="Vector_17" d="M73.38 291.87C113.553 291.87 146.12 259.303 146.12 219.13C146.12 178.957 113.553 146.39 73.38 146.39C33.2068 146.39 0.640015 178.957 0.640015 219.13C0.640015 259.303 33.2068 291.87 73.38 291.87Z" fill="#CCFEFF"/>
<path id="Vector_18" d="M70 264.92L79.22 223.41L120.22 211.59L102.75 245.49L70 264.92ZM37.17 229.12L35.73 190.74L67.44 220.57L58.32 262L37.17 229.12ZM82.51 180.92L116.57 199.92L75.57 211.73L43.87 181.91L82.51 180.92ZM139.18 197.57L98.11 175.09C97.7596 174.895 97.3738 174.773 96.9753 174.73C96.5768 174.687 96.1738 174.725 95.79 174.84L83 178.62L73.16 169.23C72.8761 168.956 72.5409 168.741 72.1737 168.597C71.8064 168.453 71.4144 168.382 71.02 168.39L24.69 169.12C24.2813 169.119 23.8768 169.202 23.5013 169.363C23.1258 169.525 22.7872 169.761 22.5062 170.058C22.2253 170.355 22.008 170.706 21.8677 171.09C21.7273 171.474 21.6668 171.882 21.69 172.29L23.85 218.5C23.8991 219.297 24.258 220.044 24.85 220.58L34.85 229.83L31.85 242.83C31.758 243.218 31.7443 243.62 31.8095 244.013C31.8748 244.406 32.0177 244.783 32.23 245.12L57.11 284.82C57.3151 285.16 57.5857 285.456 57.906 285.691C58.2263 285.925 58.59 286.094 58.9761 286.187C59.3621 286.28 59.7628 286.295 60.1548 286.232C60.5469 286.169 60.9225 286.029 61.26 285.82L100.51 261.82C100.865 261.598 101.171 261.307 101.41 260.963C101.649 260.619 101.816 260.23 101.9 259.82L104.52 247.18L117 243.8C117.399 243.688 117.771 243.496 118.094 243.237C118.417 242.977 118.684 242.655 118.88 242.29L140.44 201.65C140.628 201.301 140.745 200.917 140.784 200.522C140.823 200.127 140.783 199.728 140.667 199.349C140.551 198.97 140.36 198.617 140.107 198.311C139.853 198.006 139.542 197.754 139.19 197.57H139.18Z" fill="url(#paint0_linear)"/>
</g>
<g id="Python">
<path id="Vector_19" d="M305.02 294.55C345.193 294.55 377.76 261.983 377.76 221.81C377.76 181.637 345.193 149.07 305.02 149.07C264.847 149.07 232.28 181.637 232.28 221.81C232.28 261.983 264.847 294.55 305.02 294.55Z" fill="#CCFEFF"/>
<path id="Vector_20" d="M305.23 164.83C301.268 164.828 297.314 165.196 293.42 165.93C281.88 167.93 279.77 172.16 279.77 179.93V191.82H306.77V197.82H265.7C257.79 197.82 250.87 201.54 248.7 210.47C246.22 220.73 246.11 227.15 248.7 237.85C250.7 245.85 254.99 251.85 262.9 251.85H273.8V236.52C273.8 227.62 281.85 218.83 291.09 218.83H312.8C320.37 218.83 327.8 213.24 327.8 205.7V179.94C327.8 172.62 322.52 167.15 315.14 165.94C311.881 165.246 308.562 164.874 305.23 164.83V164.83ZM290.23 176.83C291.424 176.83 292.568 177.304 293.412 178.148C294.256 178.992 294.73 180.137 294.73 181.33C294.73 182.523 294.256 183.668 293.412 184.512C292.568 185.356 291.424 185.83 290.23 185.83C289.037 185.83 287.892 185.356 287.048 184.512C286.204 183.668 285.73 182.523 285.73 181.33C285.73 180.137 286.204 178.992 287.048 178.148C287.892 177.304 289.037 176.83 290.23 176.83Z" fill="#0277BD"/>
<path id="Vector_21" d="M302.32 278.83C306.282 278.822 310.235 278.454 314.13 277.73C325.67 275.73 327.78 271.5 327.78 263.73V251.83H300.78V245.83H341.86C349.76 245.83 356.68 242.1 358.86 233.17C361.34 222.92 361.45 216.5 358.86 205.8C356.86 197.8 352.56 191.8 344.65 191.8H333.75V207.11C333.75 216.01 325.75 224.8 316.46 224.8H294.77C287.2 224.8 279.77 230.38 279.77 237.93V263.69C279.77 271 285.05 276.48 292.43 277.69C295.681 278.395 298.994 278.777 302.32 278.83V278.83ZM317.32 266.83C316.127 266.83 314.982 266.356 314.138 265.512C313.294 264.668 312.82 263.523 312.82 262.33C312.82 261.137 313.294 259.992 314.138 259.148C314.982 258.304 316.127 257.83 317.32 257.83C318.513 257.83 319.658 258.304 320.502 259.148C321.346 259.992 321.82 261.137 321.82 262.33C321.82 263.523 321.346 264.668 320.502 265.512C319.658 266.356 318.513 266.83 317.32 266.83Z" fill="#FFC107"/>
</g>
</g>
<defs>
<linearGradient id="paint0_linear" x1="14.2869" y1="235.512" x2="148.085" y2="198.012" gradientUnits="userSpaceOnUse">
<stop stop-color="#636363"/>
<stop offset="1" stop-color="#444444"/>
</linearGradient>
</defs>
</svg>
