<svg xmlns="http://www.w3.org/2000/svg" xmlns:xlink="http://www.w3.org/1999/xlink" viewBox="0 0 397.31 300.62"><defs><style>.cls-1{fill:#f1bc19;}.cls-2{fill:#ccfeff;}.cls-3{fill:#ee3e54;}.cls-4{fill:#fbcd59;}.cls-5{fill:#fff;}.cls-6{fill:#77cbd2;}.cls-7{fill:#472b29;}.cls-8{fill:url(#linear-gradient);}.cls-9{fill:#0277bd;}.cls-10{fill:#ffc107;}</style><linearGradient id="linear-gradient" x1="45.88" y1="259.45" x2="117.64" y2="140.46" gradientTransform="translate(176.64 15.1) rotate(43.25)" gradientUnits="userSpaceOnUse"><stop offset="0" stop-color="#636363"/><stop offset="1" stop-color="#444"/></linearGradient></defs><title>Asset 1</title><g id="Layer_2" data-name="Layer 2"><g id="Layer_2-2" data-name="Layer 2"><circle class="cls-1" cx="270.83" cy="3.83" r="1.91"/><circle class="cls-2" cx="217.23" cy="72.74" r="72.74"/><circle class="cls-1" cx="282.31" cy="7.66" r="7.66"/><circle class="cls-3" cx="148.31" cy="26.8" r="3.83"/><circle class="cls-4" cx="270.83" cy="124.43" r="3.83"/><circle class="cls-4" cx="154.06" cy="126.34" r="7.66"/><circle class="cls-3" cx="167.46" cy="135.92" r="3.83"/><circle class="cls-5" cx="248.81" cy="127.3" r="4.79"/><circle class="cls-5" cx="152.14" cy="68.91" r="1.91"/><circle class="cls-1" cx="286.14" cy="36.37" r="1.91"/><circle class="cls-5" cx="274.66" cy="103.37" r="3.83"/><path class="cls-6" d="M217.23,97.63c-30.63,0-53.6-10.72-53.6-24.89s23-24.88,53.6-24.88,53.6,10.72,53.6,24.88S247.86,97.63,217.23,97.63Zm0-42.31c-27.38,0-46.52,9.19-46.52,17.42s19.14,17.42,46.52,17.42S263.75,81,263.75,72.74,244.6,55.32,217.23,55.32Z"/><path class="cls-7" d="M217.23,99c-31.4,0-54.94-11.29-54.94-26.23s23.54-26.22,54.94-26.22,54.94,11.29,54.94,26.22S248.62,99,217.23,99Zm0-49.77C187.37,49.2,165,59.34,165,72.74s22.4,23.55,52.26,23.55,52.26-10.15,52.26-23.55S247.09,49.2,217.23,49.2Zm0,42.3c-28.52,0-47.86-9.76-47.86-18.76S188.51,54,217.23,54s47.86,9.77,47.86,18.76S245.75,91.5,217.23,91.5Zm0-34.84c-27.95,0-45.18,9.38-45.18,16.08s17.23,16.08,45.18,16.08,45.18-9.38,45.18-16.08S245.18,56.66,217.23,56.66Z"/><path class="cls-6" d="M197.13,121a12.22,12.22,0,0,1-6.51-1.72c-11.68-6.89-9.19-32,5.93-58.58,10.53-18.57,24.7-32.54,36.18-35.6a14.52,14.52,0,0,1,11.11,1c11.67,6.9,9.19,32-5.94,58.58-10.53,18.57-24.69,32.55-36.18,35.61A12.93,12.93,0,0,1,197.13,121Zm40.2-89.39a20,20,0,0,0-2.87.38c-9.38,2.49-22.21,15.5-31.78,32.16-13.21,23.16-15.31,44.79-8.61,48.81,1.34.77,3.25,1,5.74.39,9.38-2.49,22.2-15.51,31.78-32.16,13.2-23.17,15.31-44.8,8.61-48.82A6.38,6.38,0,0,0,237.33,31.59Z"/><path class="cls-7" d="M197.13,122.32a13.37,13.37,0,0,1-7.28-1.91c-12.44-7.27-10.14-33.31,5.36-60.49,10.72-19,25.27-33.12,36.95-36.18,4.59-1.15,8.81-.77,12.25,1.15,12.44,7.27,10.15,33.3-5.36,60.49-10.72,19-25.27,33.12-36.94,36.18A15.16,15.16,0,0,1,197.13,122.32Zm40.2-96.48a15.65,15.65,0,0,0-4.21.58C222,29.29,208.23,43.07,197.89,61.26c-14.54,25.46-17.22,50.34-6.31,56.85a13.79,13.79,0,0,0,10.14,1c11.11-2.87,24.89-16.65,35.23-34.84,14.54-25.46,17.42-50.35,6.31-56.66A11.21,11.21,0,0,0,237.33,25.84Zm-40.2,89.4a7.87,7.87,0,0,1-3.64-1c-8.42-4.78-4.59-28.52,8-50.73,9.76-17,22.78-30.24,32.54-32.73a8.73,8.73,0,0,1,6.7.38c8.43,4.79,4.6,28.53-8,50.73C223,99,210,112.18,200.19,114.67A8.71,8.71,0,0,1,197.13,115.24Zm40.2-82.31a13.26,13.26,0,0,0-2.49.38c-9.19,2.49-21.63,15.12-31,31.58-13.59,23.93-14.55,43.84-9,47.1a6.18,6.18,0,0,0,4.6.19c9.18-2.49,21.63-15.12,31-31.59C244,56.66,245,36.75,239.43,33.5A3.86,3.86,0,0,0,237.33,32.93Z"/><path class="cls-6" d="M237.33,121a19.12,19.12,0,0,1-4.6-.57c-11.29-3.06-25.46-17-36.18-35.61-15.12-26.61-17.61-51.68-5.93-58.57a14.45,14.45,0,0,1,11.1-1c11.3,3.06,25.46,17,36.18,35.6,15.13,26.61,17.61,51.69,5.94,58.58A14.78,14.78,0,0,1,237.33,121Zm-40.2-89.39a4.62,4.62,0,0,0-2.87.76c-6.89,4-4.6,25.84,8.61,48.82,9.57,16.65,22.21,29.67,31.78,32.16,2.3.57,4.21.57,5.74-.39,6.89-4,4.6-25.84-8.61-48.81C222.21,47.47,209.57,34.46,200,32A17.07,17.07,0,0,0,197.13,31.59Z"/><path class="cls-7" d="M237.33,122.32a15.89,15.89,0,0,1-5-.76c-11.68-3.06-26.22-17.42-36.94-36.18-15.51-27.19-17.81-53.22-5.36-60.49a15.64,15.64,0,0,1,12.25-1.15C214,26.8,228.52,41.16,239.24,59.92c15.51,27.18,17.81,53.22,5.36,60.49A13.76,13.76,0,0,1,237.33,122.32Zm-40.2-96.48a12.55,12.55,0,0,0-5.94,1.53c-10.91,6.32-8,31.4,6.32,56.67,10.34,18.18,24.31,32,35.22,34.84,3.83,1,7.28.76,10.15-1,10.91-6.32,8-31.39-6.32-56.85-10.33-18.19-24.31-32-35.22-34.84A30,30,0,0,0,197.13,25.84Zm40.2,89.4a19,19,0,0,1-3.06-.38c-9.77-2.68-22.78-15.89-32.55-32.74-12.63-22.2-16.46-45.75-8-50.73a8.78,8.78,0,0,1,6.7-.38c9.77,2.68,22.78,15.89,32.55,32.74,12.63,22.2,16.46,45.75,8,50.73A11.29,11.29,0,0,1,237.33,115.24Zm-40.2-82.31a4.12,4.12,0,0,0-2.3.57c-5.36,3.25-4.59,23.16,9,47.09,9.38,16.47,21.82,29.1,31,31.59a6.07,6.07,0,0,0,4.59-.19c5.36-3.26,4.6-23.17-9-47.1-9.38-16.46-21.63-29.09-30.82-31.58A13.38,13.38,0,0,0,197.13,32.93Z"/><circle class="cls-6" cx="217.23" cy="72.74" r="10.53"/><path class="cls-7" d="M217.23,84.23a11.49,11.49,0,1,1,11.48-11.49A11.52,11.52,0,0,1,217.23,84.23Zm0-21.06a9.57,9.57,0,1,0,9.57,9.57A9.48,9.48,0,0,0,217.23,63.17Z"/><path class="cls-7" d="M217.23,80a.62.62,0,0,1-.58-.58.51.51,0,0,1,.58-.57,8.15,8.15,0,0,0,2.1-.38A10.76,10.76,0,0,0,221.82,77a.54.54,0,0,1,.77.77,7.5,7.5,0,0,1-2.87,1.91A10.84,10.84,0,0,1,217.23,80Z"/><path class="cls-7" d="M223.16,76.19H223c-.19-.19-.38-.38-.19-.58a6.13,6.13,0,0,0,.57-2.68,6,6,0,0,0-3.44-5.55c-.19-.19-.38-.38-.19-.57s.38-.38.57-.19a7,7,0,0,1,4,6.51,6.82,6.82,0,0,1-.76,3.25C223.55,76,223.35,76.19,223.16,76.19Z"/><path class="cls-7" d="M223.93,47.47c-.19,0-.19,0-.38-.19-7.09-8.8-13.79-14.55-19.91-17-.19-.2-.39-.39-.19-.58s.38-.38.57-.19c6.32,2.68,13,8.61,20.29,17.42a.59.59,0,0,1,0,.77C224.12,47.28,224.12,47.47,223.93,47.47Z"/><path class="cls-7" d="M191.39,30.25c-.2,0-.2,0-.39-.2a.58.58,0,0,1,0-.76c.58-.38,3.64-2.49,9.19-1.34.19,0,.38.38.38.57s-.38.39-.57.39c-5.17-1.15-7.85.76-8.23,1.14C191.58,30.05,191.58,30.25,191.39,30.25Z"/><path class="cls-7" d="M261.83,83.27c-.19,0-.19,0-.38-.19a.59.59,0,0,1,0-.77q6.6-5.44,5.17-12.63c0-.19.19-.57.38-.57s.57.19.57.38c1.15,5-.76,9.76-5.55,13.59A.19.19,0,0,1,261.83,83.27Z"/><path class="cls-7" d="M253.6,87.87a.41.41,0,0,1-.38-.39c0-.19,0-.57.38-.57a35.24,35.24,0,0,0,5.55-2.68.37.37,0,0,1,.58.19.36.36,0,0,1-.2.57,41.08,41.08,0,0,1-5.93,2.88Z"/><path class="cls-7" d="M196.36,117.92h0c-5.17-.19-8.42-4-9.57-10.91,0-.19.19-.57.38-.57s.58.19.58.38c1.15,6.51,4,10,8.61,10.14.19,0,.39.2.39.58C196.94,117.73,196.75,117.92,196.36,117.92Z"/><path class="cls-7" d="M186.79,102.8c-.19,0-.38-.19-.57-.38a37.24,37.24,0,0,1,.57-8.81c0-.19.38-.38.58-.38s.38.38.38.57a42.84,42.84,0,0,0-.58,8.42c.2.39,0,.58-.38.58Z"/><circle class="cls-2" cx="91.38" cy="219.13" r="72.74"/><path class="cls-8" d="M88,264.92l9.22-41.51,41-11.82-17.47,33.9Zm-32.83-35.8-1.44-38.38,31.71,29.83L76.32,262Zm45.34-48.2,34.06,19-41,11.81-31.7-29.82Zm56.67,16.65-41.07-22.48a3,3,0,0,0-2.32-.25L101,178.62l-9.84-9.39a3,3,0,0,0-2.14-.84l-46.33.73a3,3,0,0,0-3,3.17l2.16,46.21a3.06,3.06,0,0,0,1,2.08l10,9.25-3,13a3,3,0,0,0,.38,2.29l24.88,39.7a3,3,0,0,0,4.15,1l39.25-24a3.09,3.09,0,0,0,1.39-2l2.62-12.64L135,243.8a3.08,3.08,0,0,0,1.88-1.51l21.56-40.64A3,3,0,0,0,157.19,197.57Z"/><circle class="cls-1" cx="176.66" cy="208.95" r="1.91"/><circle class="cls-1" cx="182.4" cy="219.61" r="7.66"/><circle class="cls-3" cx="71.68" cy="141.74" r="3.83"/><circle class="cls-4" cx="94.02" cy="296.79" r="3.83"/><circle class="cls-4" cx="7.66" cy="218.18" r="7.66"/><circle class="cls-3" cx="10.86" cy="234.33" r="3.83"/><circle class="cls-5" cx="76.02" cy="283.8" r="4.79"/><circle class="cls-5" cx="45.61" cy="175.03" r="1.91"/><circle class="cls-1" cx="165.51" cy="243.15" r="1.91"/><circle class="cls-5" cx="111.24" cy="284.08" r="3.83"/><circle class="cls-2" cx="323.02" cy="221.81" r="72.74"/><path class="cls-9" d="M323.23,164.83a63.59,63.59,0,0,0-11.81,1.1c-11.54,2-13.65,6.23-13.65,14v11.89h27v6H283.7c-7.91,0-14.83,3.72-17,12.65-2.48,10.26-2.59,16.68,0,27.38,2,8,6.29,14,14.2,14h10.9V236.52c0-8.9,8.05-17.69,17.29-17.69h21.71c7.57,0,15-5.59,15-13.13V179.94c0-7.32-5.28-12.79-12.66-14A50.82,50.82,0,0,0,323.23,164.83Zm-15,12a4.5,4.5,0,0,1,0,9,4.5,4.5,0,0,1,0-9Z"/><path class="cls-10" d="M320.32,278.83a65.35,65.35,0,0,0,11.81-1.1c11.54-2,13.65-6.23,13.65-14V251.83h-27v-6h41.08c7.9,0,14.82-3.73,17-12.66,2.48-10.25,2.59-16.67,0-27.37-2-8-6.3-14-14.21-14h-10.9v15.31c0,8.9-8,17.69-17.29,17.69H312.77c-7.57,0-15,5.58-15,13.13v25.76c0,7.31,5.28,12.79,12.66,14A50.41,50.41,0,0,0,320.32,278.83Zm15-12a4.5,4.5,0,1,1,0-9,4.5,4.5,0,1,1,0,9Z"/><circle class="cls-1" cx="378.16" cy="153.5" r="1.91"/><circle class="cls-1" cx="389.65" cy="157.32" r="7.66"/><circle class="cls-3" cx="255.65" cy="176.47" r="3.83"/><circle class="cls-4" cx="378.16" cy="274.1" r="3.83"/><circle class="cls-4" cx="261.39" cy="276.01" r="7.66"/><circle class="cls-3" cx="274.79" cy="285.58" r="3.83"/><circle class="cls-5" cx="356.15" cy="276.97" r="4.79"/><circle class="cls-5" cx="259.48" cy="218.58" r="1.91"/><circle class="cls-1" cx="393.48" cy="186.04" r="1.91"/><circle class="cls-5" cx="381.99" cy="253.04" r="3.83"/></g></g></svg>