<svg xmlns="http://www.w3.org/2000/svg" viewBox="0 0 1046.16 909.06"><defs><style>.cls-1{fill:#282a2c;stroke:#000;stroke-miterlimit:10;}.cls-2{fill:#4f9979;}.cls-3{fill:#417a60;}.cls-4{fill:#a7aaa7;}.cls-5{fill:#315946;}.cls-6{fill:#f2d546;}.cls-7{fill:#5f94e0;}.cls-8{fill:#7f2f50;}.cls-9{fill:#4e8268;}.cls-10{fill:#fff;}.cls-11{fill:#3d6d55;}</style></defs><title>Layer 4</title><g id="Layer_2" data-name="Layer 2"><g id="Layer_4" data-name="Layer 4"><rect class="cls-1" x="0.5" y="0.5" width="1045.16" height="908.06" rx="45.16"/><rect class="cls-2" x="38.81" y="37.35" width="293.04" height="821.38"/><rect class="cls-3" x="336" y="39.3" width="668.99" height="819.15"/><rect class="cls-3" x="44.06" y="72.14" width="203.85" height="30.17" rx="14.39"/><rect class="cls-4" x="44.38" y="111.43" width="178.98" height="30.17" rx="14.39"/><rect class="cls-3" x="53.27" y="152.88" width="99.76" height="27.96" rx="13.34" transform="translate(206.31 333.71) rotate(180)"/><rect class="cls-3" x="82.65" y="190.36" width="99.76" height="27.96" rx="13.34" transform="translate(265.06 408.68) rotate(180)"/><rect class="cls-4" x="53.74" y="226.53" width="148.88" height="26.38" rx="12.58" transform="translate(256.36 479.45) rotate(-180)"/><rect class="cls-3" x="56.48" y="265.76" width="99.76" height="27.96" rx="13.34" transform="translate(212.72 559.48) rotate(-180)"/><rect class="cls-4" x="102.82" y="301.93" width="162.57" height="26.38" rx="12.58"/><rect class="cls-5" x="336" y="37.35" width="668.94" height="65.38"/><rect class="cls-5" x="336.31" y="717.92" width="669.14" height="141.08"/><rect class="cls-6" x="344.08" y="130.43" width="332.01" height="16.76" rx="8"/><rect class="cls-5" x="373.51" y="156.08" width="139.17" height="16.76" rx="8"/><rect class="cls-5" x="373.51" y="181.22" width="174.92" height="16.76" rx="8"/><rect class="cls-5" x="373.51" y="206.37" width="175.94" height="16.76" rx="8"/><rect class="cls-6" x="373.69" y="230.34" width="98.74" height="16.76" rx="8"/><rect class="cls-7" x="351.79" y="284.66" width="284.97" height="16.76" rx="8"/><rect class="cls-8" x="377.02" y="309.59" width="310.3" height="16.76" rx="8"/><rect class="cls-5" x="421.51" y="335.21" width="154.49" height="16.76" rx="8"/><rect class="cls-5" x="421.57" y="356.3" width="156.47" height="16.76" rx="8"/><rect class="cls-8" x="424.93" y="378.92" width="154.65" height="16.76" rx="8"/><rect class="cls-5" x="377.43" y="430.67" width="137.29" height="16.76" rx="8"/><rect class="cls-5" x="376.75" y="453.9" width="154.83" height="16.76" rx="8"/><rect class="cls-7" x="378.35" y="479.46" width="98.74" height="16.76" rx="8"/><rect class="cls-9" x="354.17" y="75.74" width="98.74" height="16.76" rx="8"/><rect class="cls-10" x="472.74" y="75.67" width="98.74" height="16.76" rx="8"/><rect class="cls-9" x="591.28" y="76.31" width="98.74" height="16.76" rx="8"/><rect class="cls-9" x="704.93" y="76.6" width="98.74" height="16.76" rx="8"/><rect class="cls-5" x="376.79" y="407.66" width="141" height="16.76" rx="8"/><rect class="cls-5" x="353.36" y="542.04" width="308.43" height="16.76" rx="8"/><rect class="cls-5" x="353.81" y="571.98" width="300.83" height="16.76" rx="8"/><rect class="cls-5" x="355.47" y="601.09" width="308.43" height="16.76" rx="8"/><rect class="cls-10" x="359.09" y="739.04" width="308.43" height="16.76" rx="8"/><rect class="cls-10" x="358.7" y="765.55" width="101.9" height="16.76" rx="8"/><rect class="cls-10" x="359.17" y="791.62" width="101.9" height="16.76" rx="8"/><rect class="cls-10" x="357.62" y="820.79" width="529.36" height="16.76" rx="8"/><rect class="cls-11" x="799.66" y="105.24" width="202.21" height="202.23"/><rect class="cls-6" x="804.92" y="115.23" width="65.53" height="3.31" rx="1.65"/><rect class="cls-5" x="810.73" y="120.29" width="27.47" height="3.31" rx="1.65"/><rect class="cls-5" x="810.73" y="125.25" width="34.52" height="3.31" rx="1.65"/><rect class="cls-5" x="810.73" y="130.22" width="34.73" height="3.31" rx="1.65"/><rect class="cls-6" x="810.77" y="134.95" width="19.49" height="3.31" rx="1.65"/><rect class="cls-7" x="806.44" y="145.67" width="56.25" height="3.31" rx="1.65"/><rect class="cls-8" x="811.42" y="150.59" width="61.24" height="3.31" rx="1.65"/><rect class="cls-5" x="820.2" y="155.65" width="30.49" height="3.31" rx="1.65"/><rect class="cls-5" x="820.22" y="159.81" width="30.88" height="3.31" rx="1.65"/><rect class="cls-8" x="820.88" y="164.27" width="30.52" height="3.31" rx="1.65"/><rect class="cls-5" x="811.5" y="174.49" width="27.1" height="3.31" rx="1.65"/><rect class="cls-5" x="811.37" y="179.07" width="30.56" height="3.31" rx="1.65"/><rect class="cls-7" x="811.69" y="184.12" width="19.49" height="3.31" rx="1.65"/><rect class="cls-5" x="811.38" y="169.94" width="27.83" height="3.31" rx="1.65"/><rect class="cls-5" x="806.75" y="196.47" width="60.87" height="3.31" rx="1.65"/><rect class="cls-5" x="806.84" y="202.38" width="59.38" height="3.31" rx="1.65"/><rect class="cls-5" x="807.17" y="208.12" width="60.87" height="3.31" rx="1.65"/><rect class="cls-10" x="92.43" y="486.2" width="528.51" height="268.09" rx="21.87"/><rect class="cls-1" x="101.27" y="496.92" width="507.42" height="247.05" rx="25.45"/><rect class="cls-10" x="137.26" y="530.63" width="238.58" height="22.48" rx="8"/><rect class="cls-10" x="137.87" y="570.87" width="101.9" height="16.76" rx="8"/><rect class="cls-10" x="143.94" y="602.24" width="101.9" height="16.76" rx="8"/><rect class="cls-10" x="140.81" y="631.73" width="282.51" height="17.2" rx="8"/></g></g></svg>