<svg width="146" height="146" viewBox="0 0 146 146" fill="none" xmlns="http://www.w3.org/2000/svg">
<g id="Python">
<path id="Vector" d="M73.02 145.55C113.193 145.55 145.76 112.983 145.76 72.81C145.76 32.6368 113.193 0.0700073 73.02 0.0700073C32.8468 0.0700073 0.279999 32.6368 0.279999 72.81C0.279999 112.983 32.8468 145.55 73.02 145.55Z" fill="#CCFEFF"/>
<path id="Vector_2" d="M73.23 15.83C69.2677 15.8279 65.3138 16.1962 61.42 16.93C49.88 18.93 47.77 23.16 47.77 30.93V42.82H74.77V48.82H33.7C25.79 48.82 18.87 52.54 16.7 61.47C14.22 71.73 14.11 78.15 16.7 88.85C18.7 96.85 22.99 102.85 30.9 102.85H41.8V87.52C41.8 78.62 49.85 69.83 59.09 69.83H80.8C88.37 69.83 95.8 64.24 95.8 56.7V30.94C95.8 23.62 90.52 18.15 83.14 16.94C79.8811 16.246 76.5618 15.8742 73.23 15.83ZM58.23 27.83C59.4235 27.83 60.5681 28.3041 61.412 29.148C62.2559 29.9919 62.73 31.1365 62.73 32.33C62.73 33.5235 62.2559 34.6681 61.412 35.512C60.5681 36.3559 59.4235 36.83 58.23 36.83C57.0366 36.83 55.892 36.3559 55.048 35.512C54.2041 34.6681 53.73 33.5235 53.73 32.33C53.73 31.1365 54.2041 29.9919 55.048 29.148C55.892 28.3041 57.0366 27.83 58.23 27.83Z" fill="#0277BD"/>
<path id="Vector_3" d="M70.32 129.83C74.2819 129.822 78.2348 129.454 82.13 128.73C93.67 126.73 95.78 122.5 95.78 114.73V102.83H68.78V96.83H109.86C117.76 96.83 124.68 93.1 126.86 84.17C129.34 73.92 129.45 67.5 126.86 56.8C124.86 48.8 120.56 42.8 112.65 42.8H101.75V58.11C101.75 67.01 93.75 75.8 84.46 75.8H62.77C55.2 75.8 47.77 81.38 47.77 88.93V114.69C47.77 122 53.05 127.48 60.43 128.69C63.681 129.395 66.9938 129.777 70.32 129.83ZM85.32 117.83C84.1265 117.83 82.9819 117.356 82.138 116.512C81.2941 115.668 80.82 114.523 80.82 113.33C80.82 112.137 81.2941 110.992 82.138 110.148C82.9819 109.304 84.1265 108.83 85.32 108.83C86.5135 108.83 87.6581 109.304 88.502 110.148C89.3459 110.992 89.82 112.137 89.82 113.33C89.82 114.523 89.3459 115.668 88.502 116.512C87.6581 117.356 86.5135 117.83 85.32 117.83Z" fill="#FFC107"/>
</g>
</svg>
