<svg width="146" height="146" viewBox="0 0 146 146" fill="none" xmlns="http://www.w3.org/2000/svg">
<g id="React">
<path id="Vector" d="M73.23 145.48C113.403 145.48 145.97 112.913 145.97 72.74C145.97 32.5668 113.403 0 73.23 0C33.0568 0 0.48999 32.5668 0.48999 72.74C0.48999 112.913 33.0568 145.48 73.23 145.48Z" fill="#CCFEFF"/>
<path id="Vector_2" d="M73.23 97.63C42.6 97.63 19.63 86.91 19.63 72.74C19.63 58.57 42.63 47.86 73.23 47.86C103.83 47.86 126.83 58.58 126.83 72.74C126.83 86.9 103.86 97.63 73.23 97.63ZM73.23 55.32C45.85 55.32 26.71 64.51 26.71 72.74C26.71 80.97 45.85 90.16 73.23 90.16C100.61 90.16 119.75 81 119.75 72.74C119.75 64.48 100.6 55.32 73.23 55.32Z" fill="#77CBD2"/>
<path id="Vector_3" d="M73.23 99C41.83 99 18.29 87.71 18.29 72.77C18.29 57.83 41.83 46.55 73.23 46.55C104.63 46.55 128.17 57.84 128.17 72.77C128.17 87.7 104.62 99 73.23 99ZM73.23 49.23C43.37 49.2 21 59.34 21 72.74C21 86.14 43.4 96.29 73.26 96.29C103.12 96.29 125.52 86.14 125.52 72.74C125.52 59.34 103.09 49.2 73.23 49.2V49.23ZM73.23 91.53C44.71 91.53 25.37 81.77 25.37 72.77C25.37 63.77 44.51 54 73.23 54C101.95 54 121.09 63.77 121.09 72.76C121.09 81.75 101.75 91.5 73.23 91.5V91.53ZM73.23 56.69C45.28 56.69 28.05 66.07 28.05 72.77C28.05 79.47 45.28 88.85 73.23 88.85C101.18 88.85 118.41 79.47 118.41 72.77C118.41 66.07 101.18 56.66 73.23 56.66V56.69Z" fill="#472B29"/>
<path id="Vector_4" d="M53.13 121C50.8417 121.048 48.5861 120.452 46.62 119.28C34.94 112.39 37.43 87.28 52.55 60.7C63.08 42.13 77.25 28.16 88.73 25.1C90.5563 24.526 92.4781 24.3189 94.3848 24.4905C96.2915 24.6622 98.1455 25.2091 99.84 26.1C111.51 33 109.03 58.1 93.9 84.68C83.37 103.25 69.21 117.23 57.72 120.29C56.2454 120.802 54.6903 121.042 53.13 121ZM93.33 31.61C92.3654 31.6672 91.4062 31.7942 90.46 31.99C81.08 34.48 68.25 47.49 58.68 64.15C45.47 87.31 43.37 108.94 50.07 112.96C51.41 113.73 53.32 113.96 55.81 113.35C65.19 110.86 78.01 97.84 87.59 81.19C100.79 58.02 102.9 36.39 96.2 32.37C95.3181 31.8875 94.3347 31.6203 93.33 31.59V31.61Z" fill="#77CBD2"/>
<path id="Vector_5" d="M53.13 122.32C50.5705 122.394 48.0437 121.731 45.85 120.41C33.41 113.14 35.71 87.1 51.21 59.92C61.93 40.92 76.48 26.8 88.16 23.74C92.75 22.59 96.97 22.97 100.41 24.89C112.85 32.16 110.56 58.19 95.05 85.38C84.33 104.38 69.78 118.5 58.11 121.56C56.504 122.089 54.8208 122.346 53.13 122.32ZM93.33 25.84C91.9068 25.841 90.4904 26.0362 89.12 26.42C78 29.29 64.23 43.07 53.89 61.26C39.35 86.72 36.67 111.6 47.58 118.11C50.7084 119.726 54.3363 120.083 57.72 119.11C68.83 116.24 82.61 102.46 92.95 84.27C107.49 58.81 110.37 33.92 99.26 27.61C97.4886 26.4753 95.4336 25.8619 93.33 25.84ZM53.13 115.24C51.8535 115.207 50.6043 114.864 49.49 114.24C41.07 109.46 44.9 85.72 57.49 63.51C67.25 46.51 80.27 33.27 90.03 30.78C91.1167 30.3983 92.2681 30.2353 93.418 30.3005C94.5679 30.3657 95.6935 30.6578 96.73 31.16C105.16 35.95 101.33 59.69 88.73 81.89C79 99 66 112.18 56.19 114.67C55.2125 115.042 54.176 115.235 53.13 115.24ZM93.33 32.93C92.4898 32.9774 91.6561 33.1046 90.84 33.31C81.65 35.8 69.21 48.43 59.84 64.89C46.25 88.82 45.29 108.73 50.84 111.99C52.2916 112.643 53.9394 112.712 55.44 112.18C64.62 109.69 77.07 97.06 86.44 80.59C100 56.66 101 36.75 95.43 33.5C94.7992 33.1126 94.0702 32.9147 93.33 32.93Z" fill="#472B29"/>
<path id="Vector_6" d="M93.33 121C91.7792 120.997 90.2345 120.806 88.73 120.43C77.44 117.37 63.27 103.43 52.55 84.82C37.43 58.21 34.94 33.14 46.62 26.25C48.3118 25.3568 50.1643 24.8085 52.0697 24.6368C53.9752 24.4651 55.8957 24.6736 57.72 25.25C69.02 28.31 83.18 42.25 93.9 60.85C109.03 87.46 111.51 112.54 99.84 119.43C97.8187 120.445 95.5915 120.982 93.33 121ZM53.13 31.61C52.1158 31.5407 51.107 31.8078 50.26 32.37C43.37 36.37 45.66 58.21 58.87 81.19C68.44 97.84 81.08 110.86 90.65 113.35C92.95 113.92 94.86 113.92 96.39 112.96C103.28 108.96 100.99 87.12 87.78 64.15C78.21 47.47 65.57 34.46 56 32C55.0567 31.7822 54.0966 31.645 53.13 31.59V31.61Z" fill="#77CBD2"/>
<path id="Vector_7" d="M93.33 122.32C91.6334 122.335 89.9454 122.079 88.33 121.56C76.65 118.5 62.11 104.14 51.39 85.38C35.88 58.19 33.58 32.16 46.03 24.89C47.8881 23.8801 49.9316 23.2575 52.0372 23.0598C54.1427 22.8621 56.2664 23.0935 58.28 23.74C70 26.8 84.52 41.16 95.24 59.92C110.75 87.1 113.05 113.14 100.6 120.41C98.4009 121.709 95.8836 122.37 93.33 122.32ZM53.13 25.84C51.0539 25.8508 49.013 26.3765 47.19 27.37C36.28 33.69 39.19 58.77 53.51 84.04C63.85 102.22 77.82 116.04 88.73 118.88C92.56 119.88 96.01 119.64 98.88 117.88C109.79 111.56 106.88 86.49 92.56 61.03C82.23 42.84 68.25 29.03 57.34 26.19C55.9466 25.9746 54.5398 25.8576 53.13 25.84ZM93.33 115.24C92.3014 115.196 91.278 115.069 90.27 114.86C80.5 112.18 67.49 98.97 57.72 82.12C45.09 59.92 41.26 36.37 49.72 31.39C51.8149 30.3812 54.2244 30.2445 56.42 31.01C66.19 33.69 79.2 46.9 88.97 63.75C101.6 85.95 105.43 109.5 96.97 114.48C95.807 114.933 94.577 115.19 93.33 115.24ZM53.13 32.93C52.3241 32.8907 51.5243 33.0889 50.83 33.5C45.47 36.75 46.24 56.66 59.83 80.59C69.21 97.06 81.65 109.69 90.83 112.18C92.3258 112.72 93.974 112.652 95.42 111.99C100.78 108.73 100.02 88.82 86.42 64.89C77.04 48.43 64.79 35.8 55.6 33.31C54.7903 33.1066 53.9634 32.9793 53.13 32.93Z" fill="#472B29"/>
<path id="Vector_8" d="M73.23 83.27C79.0456 83.27 83.76 78.5555 83.76 72.74C83.76 66.9244 79.0456 62.21 73.23 62.21C67.4145 62.21 62.7 66.9244 62.7 72.74C62.7 78.5555 67.4145 83.27 73.23 83.27Z" fill="#77CBD2"/>
<path id="Vector_9" d="M73.23 84.23C70.9571 84.232 68.7346 83.5598 66.8438 82.2984C64.9529 81.0371 63.4787 79.2433 62.6075 77.144C61.7363 75.0446 61.5073 72.734 61.9495 70.5045C62.3918 68.275 63.4853 66.2268 65.0918 64.6189C66.6983 63.011 68.7456 61.9157 70.9747 61.4715C73.2038 61.0274 75.5146 61.2543 77.6147 62.1237C79.7148 62.993 81.5099 64.4657 82.7729 66.3555C84.0359 68.2452 84.71 70.4671 84.71 72.74C84.7021 75.7832 83.4904 78.6996 81.3394 80.8524C79.1885 83.0052 76.2732 84.2194 73.23 84.23ZM73.23 63.17C71.3372 63.17 69.487 63.7313 67.9132 64.7828C66.3394 65.8344 65.1128 67.329 64.3885 69.0777C63.6641 70.8264 63.4746 72.7506 63.8439 74.607C64.2131 76.4634 65.1246 78.1686 66.463 79.507C67.8014 80.8454 69.5066 81.7569 71.363 82.1261C73.2194 82.4954 75.1436 82.3059 76.8923 81.5815C78.641 80.8572 80.1356 79.6306 81.1872 78.0568C82.2387 76.483 82.8 74.6328 82.8 72.74C82.812 71.4799 82.5727 70.2301 82.096 69.0635C81.6193 67.897 80.9149 66.8373 80.0238 65.9462C79.1327 65.0551 78.073 64.3507 76.9064 63.874C75.7399 63.3973 74.4901 63.158 73.23 63.17Z" fill="#472B29"/>
<path id="Vector_10" d="M73.23 80C73.0792 79.9906 72.9371 79.9264 72.8304 79.8196C72.7236 79.7128 72.6594 79.5707 72.65 79.42C72.6399 79.3419 72.648 79.2625 72.6737 79.188C72.6995 79.1135 72.7421 79.046 72.7983 78.9908C72.8545 78.9356 72.9227 78.8942 72.9976 78.8697C73.0725 78.8453 73.152 78.8385 73.23 78.85C73.9436 78.8159 74.6497 78.6882 75.33 78.47C76.2223 78.0943 77.0599 77.5998 77.82 77C77.9221 76.8979 78.0606 76.8405 78.205 76.8405C78.3494 76.8405 78.4879 76.8979 78.59 77C78.6921 77.1021 78.7494 77.2406 78.7494 77.385C78.7494 77.5294 78.6921 77.6679 78.59 77.77C77.7946 78.6209 76.812 79.2748 75.72 79.68C74.9052 79.8827 74.0696 79.9901 73.23 80Z" fill="#472B29"/>
<path id="Vector_11" d="M79.16 76.19H79C78.81 76 78.62 75.81 78.81 75.61C79.1997 74.7711 79.3946 73.8549 79.38 72.93C79.4037 71.7715 79.0915 70.6309 78.4811 69.6461C77.8706 68.6612 76.988 67.8741 75.94 67.38C75.75 67.19 75.56 67 75.75 66.81C75.94 66.62 76.13 66.43 76.32 66.62C77.5458 67.2009 78.5764 68.1254 79.2865 69.2811C79.9966 70.4368 80.3557 71.774 80.32 73.13C80.3397 74.2595 80.0786 75.3763 79.56 76.38C79.55 76 79.35 76.19 79.16 76.19Z" fill="#472B29"/>
<path id="Vector_12" d="M79.93 47.47C79.74 47.47 79.74 47.47 79.55 47.28C72.46 38.48 65.76 32.73 59.64 30.28C59.45 30.08 59.25 29.89 59.45 29.7C59.65 29.51 59.83 29.32 60.02 29.51C66.34 32.19 73.02 38.12 80.31 46.93C80.4022 47.0371 80.4529 47.1737 80.4529 47.315C80.4529 47.4563 80.4022 47.5929 80.31 47.7C80.12 47.28 80.12 47.47 79.93 47.47Z" fill="#472B29"/>
<path id="Vector_13" d="M47.39 30.25C47.19 30.25 47.19 30.25 47 30.05C46.9085 29.9445 46.8582 29.8096 46.8582 29.67C46.8582 29.5304 46.9085 29.3955 47 29.29C47.58 28.91 50.64 26.8 56.19 27.95C56.38 27.95 56.57 28.33 56.57 28.52C56.57 28.71 56.19 28.91 56 28.91C50.83 27.76 48.15 29.67 47.77 30.05C47.58 30.05 47.58 30.25 47.39 30.25Z" fill="#472B29"/>
<path id="Vector_14" d="M109.6 87.87C109.5 87.8628 109.406 87.8191 109.336 87.7472C109.266 87.6753 109.225 87.5802 109.22 87.48C109.22 87.29 109.22 86.91 109.6 86.91C111.525 86.1805 113.382 85.2837 115.15 84.23C115.198 84.1935 115.254 84.1691 115.313 84.1591C115.372 84.149 115.433 84.1535 115.49 84.1722C115.547 84.1909 115.599 84.2233 115.641 84.2664C115.682 84.3096 115.713 84.3623 115.73 84.42C115.767 84.4675 115.791 84.5234 115.801 84.5827C115.81 84.642 115.805 84.7027 115.785 84.7593C115.765 84.816 115.731 84.8668 115.687 84.907C115.642 84.9473 115.588 84.9758 115.53 84.99C113.634 86.1073 111.651 87.0704 109.6 87.87Z" fill="#472B29"/>
<path id="Vector_15" d="M52.36 117.92C47.19 117.73 43.94 113.92 42.79 107.01C42.79 106.82 42.98 106.44 43.17 106.44C43.36 106.44 43.75 106.63 43.75 106.82C44.9 113.33 47.75 116.82 52.36 116.96C52.55 116.96 52.75 117.16 52.75 117.54C52.94 117.73 52.75 117.92 52.36 117.92Z" fill="#472B29"/>
<path id="Vector_16" d="M42.79 102.8C42.6 102.8 42.41 102.61 42.22 102.42C42.06 99.4711 42.2513 96.5137 42.79 93.61C42.79 93.42 43.17 93.23 43.37 93.23C43.57 93.23 43.75 93.61 43.75 93.8C43.28 96.5807 43.0857 99.4011 43.17 102.22C43.37 102.61 43.17 102.8 42.79 102.8Z" fill="#472B29"/>
</g>
</svg>
