<svg width="146" height="146" viewBox="0 0 146 146" fill="none" xmlns="http://www.w3.org/2000/svg">
<g id="Unity">
<path id="Vector" d="M72.74 145.48C112.913 145.48 145.48 112.913 145.48 72.74C145.48 32.5668 112.913 0 72.74 0C32.5668 0 0 32.5668 0 72.74C0 112.913 32.5668 145.48 72.74 145.48Z" fill="#CCFEFF"/>
<path id="Vector_2" d="M69.36 118.53L78.58 77.02L119.58 65.2L102.11 99.1L69.36 118.53ZM36.53 82.73L35.09 44.35L66.8 74.18L57.68 115.61L36.53 82.73ZM81.87 34.53L115.93 53.53L74.93 65.34L43.23 35.52L81.87 34.53ZM138.54 51.18L97.47 28.7C97.1196 28.5055 96.7338 28.3831 96.3353 28.3402C95.9368 28.2973 95.5338 28.3346 95.15 28.45L82.36 32.23L72.52 22.84C72.236 22.5662 71.9009 22.351 71.5336 22.2069C71.1664 22.0627 70.7744 21.9924 70.38 22L24.05 22.73C23.6413 22.7293 23.2368 22.8122 22.8613 22.9735C22.4858 23.1348 22.1471 23.3711 21.8662 23.6679C21.5853 23.9647 21.368 24.3158 21.2276 24.6997C21.0873 25.0835 21.0268 25.492 21.05 25.9L23.21 72.11C23.2591 72.9073 23.6179 73.6538 24.21 74.19L34.21 83.44L31.21 96.44C31.118 96.8278 31.1043 97.2301 31.1695 97.6232C31.2348 98.0164 31.3777 98.3927 31.59 98.73L56.47 138.43C56.6751 138.77 56.9456 139.066 57.266 139.301C57.5863 139.535 57.95 139.704 58.3361 139.797C58.7221 139.89 59.1228 139.905 59.5148 139.842C59.9069 139.779 60.2825 139.639 60.62 139.43L99.87 115.43C100.225 115.208 100.531 114.917 100.77 114.573C101.009 114.229 101.176 113.84 101.26 113.43L103.88 100.79L116.36 97.41C116.759 97.2977 117.131 97.1061 117.454 96.8466C117.777 96.5872 118.044 96.2652 118.24 95.9L139.8 55.26C139.988 54.9105 140.105 54.5272 140.144 54.1322C140.183 53.7373 140.143 53.3385 140.027 52.959C139.911 52.5795 139.72 52.2269 139.467 51.9215C139.213 51.6161 138.902 51.3641 138.55 51.18H138.54Z" fill="url(#paint0_linear)"/>
</g>
<defs>
<linearGradient id="paint0_linear" x1="13.6469" y1="89.122" x2="147.445" y2="51.6219" gradientUnits="userSpaceOnUse">
<stop stop-color="#636363"/>
<stop offset="1" stop-color="#444444"/>
</linearGradient>
</defs>
</svg>
